<?xml version="1.0" encoding="UTF-8" standalone="no"?>
<!-- Created with Inkscape (http://www.inkscape.org/) -->

<svg
   xmlns:dc="http://purl.org/dc/elements/1.1/"
   xmlns:cc="http://creativecommons.org/ns#"
   xmlns:rdf="http://www.w3.org/1999/02/22-rdf-syntax-ns#"
   xmlns:svg="http://www.w3.org/2000/svg"
   xmlns="http://www.w3.org/2000/svg"
   xmlns:sodipodi="http://sodipodi.sourceforge.net/DTD/sodipodi-0.dtd"
   xmlns:inkscape="http://www.inkscape.org/namespaces/inkscape"
   width="109.49855"
   height="29.999519"
   viewBox="0 0 28.97149 7.9373729"
   version="1.1"
   id="svg1159"
   inkscape:version="0.92.0 r15299"
   sodipodi:docname="aman.svg">
  <defs
     id="defs1153">
    <style
       id="style1161">.cls-2{fill:#fff}</style>
  </defs>
  <sodipodi:namedview
     id="base"
     pagecolor="#ffffff"
     bordercolor="#666666"
     borderopacity="1.0"
     inkscape:pageopacity="0.0"
     inkscape:pageshadow="2"
     inkscape:zoom="8.267391"
     inkscape:cx="54.249279"
     inkscape:cy="14.499761"
     inkscape:document-units="mm"
     inkscape:current-layer="layer1"
     showgrid="false"
     fit-margin-top="0"
     fit-margin-left="0"
     fit-margin-right="0"
     fit-margin-bottom="0"
     units="px"
     inkscape:window-width="1280"
     inkscape:window-height="744"
     inkscape:window-x="-4"
     inkscape:window-y="-4"
     inkscape:window-maximized="1" />
  <metadata
     id="metadata1156">
    <rdf:RDF>
      <cc:Work
         rdf:about="">
        <dc:format>image/svg+xml</dc:format>
        <dc:type
           rdf:resource="http://purl.org/dc/dcmitype/StillImage" />
        <dc:title></dc:title>
      </cc:Work>
    </rdf:RDF>
  </metadata>
  <g
     inkscape:label="Layer 1"
     inkscape:groupmode="layer"
     id="layer1"
     transform="translate(-208.65272,-329.94069)">
    <path
       class="cls-2"
       id="path-1"
       d="m 237.34756,334.36228 v 3.38349 h -0.0566 c -1.57744,-1.97617 -3.52121,-4.46881 -3.85022,-4.94043 h -0.0149 v 2.32039 c 0,2.15583 0.0492,2.50772 0.0971,2.50772 v 0.03 h -0.63447 v -0.03 c 0.0504,0 0.1442,-0.35189 0.1442,-2.50772 v -3.39831 h 0.0568 c 1.57758,1.97618 3.52134,4.46882 3.85035,4.94044 h 0.0149 v -2.30558 c 0,-2.15583 -0.0467,-2.50759 -0.0974,-2.50759 v -0.0299 h 0.6346 v 0.0299 c -0.0504,0 -0.14433,0.35176 -0.14433,2.50759 z m -7.75123,3.30107 v -0.0299 c 0.0763,-0.036 -0.018,-0.34435 -0.64585,-1.93833 0,0 -1.03161,-2.70166 -1.1213,-2.98609 h -0.007 c -0.0971,0.28443 -1.1811,2.98609 -1.1811,2.98609 -0.64281,1.59398 -0.75949,1.89838 -0.68025,1.93833 v 0.0299 h -0.64082 v -0.0299 c 0.15862,0 2.48298,-5.90484 2.48298,-5.90484 h 0.0759 c 0,0 2.21946,5.90484 2.37795,5.90484 v 0.0299 z m -7.54182,0 v -0.0299 c 0.15492,0 -0.31393,-4.16851 -0.33628,-4.64754 h -0.0149 c -0.22424,0.59876 -0.54584,1.2872 -0.94946,2.13294 -0.28403,0.59121 -0.6727,1.51183 -1.16602,2.5445 h -0.13454 c -0.49331,-1.03267 -0.88199,-1.95329 -1.16602,-2.5445 -0.40362,-0.84574 -0.72522,-1.53418 -0.94945,-2.13294 h -0.0148 c -0.0225,0.47903 -0.49133,4.64754 -0.33629,4.64754 v 0.0299 h -0.63354 v -0.0299 c 0.20836,0 0.74123,-5.90484 0.74123,-5.90484 h 0.0566 c 2.12288,4.41564 2.16019,4.69252 2.36207,5.14893 h 0.0149 c 0.20187,-0.45641 0.23918,-0.73329 2.36207,-5.14893 h 0.0566 c 0,0 0.53287,5.90484 0.74123,5.90484 v 0.0299 z m -8.99318,0 v -0.0299 c 0.0761,-0.036 -0.0181,-0.34435 -0.64598,-1.93833 0,0 -1.03148,-2.70166 -1.12131,-2.98609 h -0.007 c -0.0972,0.28443 -1.1811,2.98609 -1.1811,2.98609 -0.6428,1.59398 -0.75962,1.89838 -0.68024,1.93833 v 0.0299 h -0.64069 v -0.0299 c 0.15849,0 2.48272,-5.90484 2.48272,-5.90484 h 0.0759 c 0,0 2.21959,5.90484 2.37808,5.90484 v 0.0299 z m -2.65007,-7.59037 h 1.78647 v 0.39053 h -1.78647 z"
       inkscape:connector-curvature="0"
       style="fill:#000000;fill-rule:evenodd;stroke-width:0.13229166" />
  </g>
</svg>
