<svg width="89" height="18" viewBox="0 0 89 18" fill="none" xmlns="http://www.w3.org/2000/svg">
<path d="M35.0881 15.573C33.8661 17.364 32.1001 17.901 30.0961 17.862C27.1631 17.803 25.1011 15.952 24.7081 13.03C24.6281 12.437 24.5871 11.835 24.5841 11.237C24.5701 8.92101 24.5681 6.60601 24.5841 4.28901C24.5891 3.71801 24.4781 3.24701 24.0561 2.81901C23.5251 2.28001 23.6601 1.93701 24.4081 1.80101C25.1351 1.66901 25.8681 1.56901 26.5961 1.44101C27.2251 1.32901 27.4571 1.55601 27.4521 2.21701C27.4231 5.53301 27.4351 8.85001 27.4211 12.166C27.4181 12.831 27.4951 13.481 27.6881 14.112C28.1861 15.738 29.3041 16.667 30.7981 16.722C32.5651 16.787 33.9691 15.918 34.5911 14.361C34.8811 13.634 34.9781 12.875 34.9771 12.094C34.9701 9.54901 34.9601 7.00401 34.9841 4.46101C34.9901 3.79101 34.8641 3.25401 34.3191 2.79901C33.7951 2.36301 33.8781 2.01101 34.5241 1.86101C35.3251 1.67601 36.1451 1.56401 36.9601 1.43901C37.6541 1.33201 37.6651 1.79401 37.6651 2.29601C37.6601 6.55601 37.6651 10.816 37.6601 15.077C37.6601 15.813 37.6071 16.541 38.5731 16.747C38.7711 16.79 38.8941 16.988 38.8371 17.223C38.7781 17.479 38.5611 17.575 38.3451 17.652C36.6531 18.269 35.5921 17.652 35.2361 15.856C35.2211 15.781 35.1611 15.715 35.0841 15.576L35.0881 15.573ZM5.44409 1.57801C6.98009 1.57801 8.51809 1.59901 10.0531 1.56801C10.6481 1.55601 10.9421 1.76201 11.0391 2.35801C11.1551 3.06201 11.3341 3.75401 11.4901 4.44901C11.5431 4.68301 11.5721 4.90401 11.3411 5.06601C11.0831 5.24601 10.8461 5.14801 10.6321 4.99201C10.1661 4.64701 9.87409 4.14301 9.53709 3.68701C9.06409 3.04101 8.48909 2.70401 7.65309 2.75201C6.66109 2.80901 5.66109 2.78501 4.66709 2.75801C3.98909 2.73901 3.66309 3.00501 3.66809 3.70401C3.68009 5.44701 3.68509 7.19101 3.66109 8.93401C3.65409 9.40501 3.83009 9.52301 4.25909 9.50101C4.82609 9.47201 5.40009 9.45601 5.96509 9.50101C6.98909 9.58301 7.89609 9.48901 8.35209 8.36901C8.45409 8.11701 8.69409 7.98101 8.98609 8.06401C9.30709 8.15501 9.30209 8.42601 9.30209 8.68901V11.519C9.30209 11.756 9.28109 11.987 9.02009 12.085C8.77409 12.178 8.51409 12.102 8.42409 11.888C7.81209 10.409 6.53609 10.705 5.37109 10.701C4.23709 10.698 3.67009 11.255 3.67009 12.374C3.67009 13.203 3.68509 14.033 3.66409 14.86C3.64609 15.619 3.62509 16.356 4.36809 16.842C4.54109 16.955 4.61909 17.158 4.53709 17.374C4.45009 17.603 4.23809 17.621 4.04009 17.621C2.87409 17.627 1.70709 17.649 0.54009 17.615C-0.0719098 17.597 -0.15691 17.192 0.25009 16.837C0.84609 16.316 0.89209 15.686 0.89009 14.98C0.87709 11.38 0.87809 7.77701 0.89009 4.17401C0.89209 3.49901 0.88009 2.85901 0.27009 2.40201C0.0890902 2.26701 -0.0479098 2.05201 0.0670902 1.80101C0.18509 1.54001 0.43809 1.58001 0.66309 1.58001H5.44309L5.44409 1.57801ZM52.9151 9.56601C52.9151 7.68101 52.9051 5.79501 52.9221 3.91001C52.9271 3.34001 52.8621 2.83501 52.3751 2.45901C52.1751 2.30401 51.9791 2.09501 52.1101 1.80301C52.2251 1.54501 52.4811 1.58001 52.7081 1.58001C55.8931 1.58001 59.0781 1.58501 62.2631 1.57301C62.7141 1.57301 62.9441 1.76001 63.0331 2.18901C63.1901 2.94301 63.3581 3.69501 63.5301 4.44601C63.5831 4.67901 63.6191 4.90101 63.3941 5.06401C63.1411 5.24601 62.8961 5.15001 62.6851 4.99501C62.2631 4.68801 61.9881 4.24501 61.6971 3.82401C61.1711 3.06201 60.5131 2.66501 59.5401 2.74601C58.6071 2.82301 57.6621 2.79001 56.7261 2.75201C56.0431 2.72701 55.7061 3.00501 55.7051 3.68501C55.7001 5.45501 55.7051 7.22701 55.6881 8.99801C55.6841 9.36501 55.8171 9.50101 56.1831 9.49401C57.1791 9.47901 58.1731 9.49101 59.1691 9.48701C59.7581 9.48701 59.9631 9.01201 60.2261 8.61001C60.4281 8.30101 60.6021 7.90701 61.0701 8.07401C61.4821 8.22201 61.2941 8.61101 61.2991 8.89801C61.3181 9.78401 61.3061 10.669 61.3031 11.555C61.3031 11.752 61.3251 11.97 61.0921 12.068C60.8521 12.169 60.5821 12.116 60.4911 11.9C59.8571 10.396 58.5541 10.696 57.3621 10.693C56.2481 10.69 55.6911 11.261 55.6911 12.405C55.6911 13.262 55.7051 14.118 55.6861 14.975C55.6701 15.683 55.7111 16.346 56.3731 16.799C56.5601 16.928 56.7021 17.141 56.5791 17.393C56.4781 17.601 56.2621 17.616 56.0621 17.616C54.9241 17.62 53.7861 17.621 52.6491 17.616C52.4231 17.616 52.1741 17.611 52.0871 17.335C52.0171 17.113 52.1381 16.924 52.2951 16.809C52.9151 16.361 52.9271 15.724 52.9201 15.046C52.9011 13.217 52.9131 11.388 52.9131 9.56101L52.9151 9.56601ZM17.6981 17.628C16.1331 17.628 14.5681 17.633 13.0031 17.625C12.7051 17.625 12.3301 17.731 12.1781 17.354C12.0491 17.029 12.3201 16.832 12.5291 16.644C12.8771 16.332 12.9621 15.942 12.9621 15.489C12.9541 11.572 12.9491 7.65701 12.9661 3.74001C12.9681 3.20901 12.8141 2.80201 12.4211 2.46101C12.2261 2.29201 12.0551 2.07801 12.1941 1.78901C12.3201 1.52801 12.5751 1.58101 12.7951 1.58101C13.8761 1.57801 14.9581 1.58001 16.0391 1.58101C16.2681 1.58101 16.5261 1.55701 16.6351 1.81101C16.7581 2.10001 16.5721 2.31301 16.3601 2.46401C15.8581 2.81901 15.7641 3.31101 15.7661 3.88901C15.7791 7.60501 15.7691 11.321 15.7741 15.037C15.7741 16.273 15.9451 16.438 17.1441 16.442C18.1691 16.443 19.1961 16.401 20.2171 16.456C21.1041 16.502 21.6731 16.11 22.0901 15.379C22.3561 14.908 22.6331 14.443 22.9301 13.993C23.1111 13.72 23.4201 13.686 23.6991 13.782C24.0291 13.895 23.9311 14.196 23.8851 14.441C23.7361 15.226 23.5551 16.006 23.4291 16.796C23.3281 17.412 23.0291 17.659 22.3901 17.646C20.8261 17.611 19.2611 17.633 17.6961 17.633L17.6981 17.628ZM65.5031 9.05801C65.5311 4.99201 67.7721 1.98101 71.3811 1.16401C74.0511 0.560011 77.0801 1.65301 78.5051 3.73301C78.7321 4.06401 78.9181 4.41301 79.0311 4.80301C79.1521 5.22501 79.1541 5.62701 78.7101 5.83301C78.2891 6.02701 77.9321 5.83501 77.6761 5.47401C77.4951 5.21801 77.3091 4.96101 77.1711 4.68301C76.1811 2.69201 74.5981 1.64701 72.3751 1.79101C70.0901 1.93901 68.5221 3.23701 67.5651 5.25601C65.7851 9.01801 67.4351 14.027 70.9781 15.774C73.7691 17.149 76.6531 16.181 78.2191 13.332C78.4121 12.982 78.5611 12.609 78.7541 12.26C78.8631 12.061 79.0211 11.845 79.2911 11.955C79.5501 12.061 79.5521 12.317 79.4871 12.546C79.2311 13.459 78.8631 14.326 78.2761 15.077C75.9181 18.089 71.7471 18.533 68.8001 16.081C66.6141 14.261 65.4641 11.939 65.5011 9.06001L65.5031 9.05801ZM84.8181 2.43301C87.1641 2.43801 88.9101 4.24601 88.8961 6.65601C88.8821 8.97701 87.2001 10.694 84.9481 10.684C82.6131 10.672 80.7921 8.78301 80.8061 6.38401C80.8181 4.09401 82.5091 2.43001 84.8181 2.43501V2.43301ZM82.0531 6.19401C82.0561 7.15701 82.1911 7.72701 82.5791 8.40501C83.2401 9.56101 84.3811 10.176 85.5391 9.99901C86.5511 9.84401 87.2941 8.98601 87.5931 7.66001C87.8611 6.47701 87.5841 5.38501 86.9761 4.39401C86.1781 3.09201 84.6751 2.68601 83.4401 3.37401C82.3381 3.98901 82.0131 5.00501 82.0531 6.19401ZM85.0441 11.872C86.0931 11.872 87.1421 11.876 88.1911 11.871C88.4911 11.871 88.7611 11.862 88.7611 12.29C88.7611 12.71 88.4981 12.728 88.1921 12.722C86.0711 12.679 83.9491 12.614 81.8291 12.722C81.5301 12.738 81.2531 12.724 81.2501 12.302C81.2451 11.884 81.4991 11.867 81.8121 11.869C82.8901 11.878 83.9661 11.872 85.0441 11.872ZM40.8241 9.56601C40.8241 7.68101 40.8141 5.79501 40.8311 3.91001C40.8361 3.34001 40.7711 2.83501 40.2841 2.45901C40.0841 2.30401 39.8881 2.09501 40.0191 1.80301C40.1341 1.54501 40.3901 1.58001 40.6171 1.58001C43.8011 1.58001 46.9871 1.58501 50.1711 1.57301C50.6221 1.57301 50.8531 1.76001 50.9421 2.18901C51.0991 2.94301 51.2661 3.69501 51.4391 4.44601C51.4921 4.67901 51.5281 4.90101 51.3021 5.06401C51.0491 5.24601 50.8051 5.15001 50.5931 4.99501C50.1711 4.68801 49.8961 4.24501 49.6061 3.82401C49.0801 3.06201 48.4221 2.66501 47.4481 2.74601C46.5161 2.82301 45.5711 2.79001 44.6351 2.75201C43.9521 2.72701 43.6151 3.00501 43.6131 3.68501C43.6081 5.45501 43.6131 7.22701 43.5961 8.99801C43.5931 9.36501 43.7261 9.50101 44.0921 9.49401C45.0881 9.47901 46.0821 9.49101 47.0781 9.48701C47.6671 9.48701 47.8721 9.01201 48.1351 8.61001C48.3371 8.30101 48.5111 7.90701 48.9791 8.07401C49.3911 8.22201 49.2031 8.61101 49.2081 8.89801C49.2271 9.78401 49.2151 10.669 49.2111 11.555C49.2111 11.752 49.2341 11.97 49.0011 12.068C48.7601 12.169 48.4911 12.116 48.4001 11.9C47.7661 10.396 46.4631 10.696 45.2701 10.693C44.1571 10.69 43.6001 11.261 43.6001 12.405C43.6001 13.262 43.6131 14.118 43.5951 14.975C43.5791 15.683 43.6201 16.346 44.2811 16.799C44.4691 16.928 44.6111 17.141 44.4881 17.393C44.3871 17.601 44.1701 17.616 43.9701 17.616C42.8331 17.62 41.6951 17.621 40.5571 17.616C40.3321 17.616 40.0831 17.611 39.9951 17.335C39.9251 17.113 40.0471 16.924 40.2041 16.809C40.8241 16.361 40.8361 15.724 40.8291 15.046C40.8101 13.217 40.8221 11.388 40.8221 9.56101L40.8241 9.56601Z" fill="black"/>
</svg>
