<svg aria-hidden="false" aria-label="GMA Logo" class="prism-Iconography prism-Iconography--logos-gmaBlue" focusable="false" height="1em" role="img" viewBox="0 0 97 32" width="1em" xmlns="http://www.w3.org/2000/svg" xmlns:xlink="http://www.w3.org/1999/xlink"><path d="M14.059.11C9.024.628 4.217 3.889 1.791 8.432c-2.612 4.892-2.254 11.636.874 16.471.896 1.385 2.779 3.372 4.065 4.29 1.369.977 3.454 1.924 5.167 2.348 2.013.498 5.708.499 7.533.003 2.919-.794 5.096-1.986 7.106-3.892 1.466-1.391 2.901-3.341 3.522-4.786.961-2.24 1.536-5.612 1.335-7.831l-.088-.974H16.159v6.141h6.472l-.271.524c-.386.746-2.126 2.439-2.927 2.848-2.276 1.161-5.332 1.084-7.451-.188-.475-.285-1.32-1-1.877-1.589-1.658-1.752-2.344-3.522-2.347-6.051-.003-2.428.721-4.189 2.413-5.875 1.521-1.514 3.363-2.275 5.503-2.275 2.049 0 3.676.644 5.57 2.207l1.047.864h8.272l-.113-.364c-.207-.668-1.238-2.615-1.903-3.596-.362-.533-1.17-1.482-1.796-2.108C23.372 1.22 18.843-.381 14.058.11zm19.877 15.725v15.354h7.108l.042-10.016.042-10.016 6.18 19.952 5.311.088 6.123-19.789.042 9.891.042 9.891h7.269V.486L55.833.488l-2.897 9.29c-1.593 5.109-2.939 9.248-2.99 9.198s-1.37-4.213-2.931-9.25L44.177.568 33.936.483v15.354zm39.999-.769a6474.889 6474.889 0 01-5.758 15.356l-.3.768h8.003l1.468-4.444h9.973l1.468 4.444h4.004c2.202 0 4.003-.018 4.001-.04s-2.575-6.913-5.718-15.312L85.361.567 79.392.479l-5.458 14.588zm9.927.473l1.422 4.742-2.911.044c-1.602.024-2.935.021-2.963-.007-.044-.044.639-2.357 2.437-8.252.239-.785.471-1.392.514-1.348s.719 2.213 1.501 4.821z" fill="currentColor"></path></svg>