<?xml version="1.0" encoding="utf-8"?>
<!-- Generator: Adobe Illustrator 23.0.2, SVG Export Plug-In . SVG Version: 6.00 Build 0)  -->
<svg version="1.1" id="Layer_1" xmlns="http://www.w3.org/2000/svg" xmlns:xlink="http://www.w3.org/1999/xlink" x="0px" y="0px"
	 viewBox="0 0 176.4 138.6" style="enable-background:new 0 0 176.4 138.6;" xml:space="preserve">
<style type="text/css">
	.st0{fill:#CEB781;}
</style>
<path class="st0" d="M0,120.9h176.4v-0.8H0V120.9z M0,99.1v0.8h176.4v-0.8H0z"/>
<path class="st0" d="M121.8,130.3c0-1.5,0-1.7-0.6-1.8h-0.4c-0.1-0.1-0.1-0.4,0-0.4c0.8-0.1,2-0.1,3.1-0.1s2,0.2,2.6,0.5
	c0.7,0.4,1.2,1.2,1.2,2.3c0,1.5-1,2.2-1.6,2.5c-0.1,0-0.1,0.2,0,0.3c1.1,2.1,1.8,3.5,2.4,4.1c0.4,0.4,0.6,0.4,0.7,0.4
	c0.1,0.1,0,0.4,0,0.4h-2.3c0,0-0.4-0.5-1.2-2c-0.4-0.7-0.7-1.5-1.1-2.2c-0.2-0.5-0.4-0.5-0.8-0.5s-0.4,0-0.4,0.4v2
	c0,1.7,0.1,1.7,0.8,1.8h0.3c0.1,0.1,0.1,0.4,0,0.5c-1.2-0.1-2.4-0.1-3.6,0c-0.1-0.1-0.1-0.3,0-0.5h0.3c0.6-0.1,0.8-0.1,0.8-1.8
	L121.8,130.3L121.8,130.3z M123.4,132.6c0,0.5,0,0.5,0.6,0.5c1.3,0,1.9-0.8,1.9-2.3c0-1.3-0.7-2.3-1.9-2.3c-0.7,0-0.7,0-0.7,0.8
	C123.4,129.3,123.4,132.6,123.4,132.6z M19.5,129.2c0-0.7,0-0.7-0.4-0.7h-0.8c-1.2,0-1.6,0.2-2.1,1.5c-0.1,0.1-0.4,0-0.4-0.1
	c0.2-0.8,0.4-1.6,0.5-2.4l0.1-0.1c0.1,0,0.1,0,0.1,0.1c0.1,0.4,0.3,0.4,1.2,0.4h5.5c0.7,0,0.9,0,1-0.4c0.1,0,0.1-0.1,0.2-0.1
	s0.1,0,0.2,0.1c-0.1,0.6-0.2,2-0.2,2.5c-0.1,0.1-0.3,0.2-0.4,0c-0.2-1.2-0.4-1.5-1.9-1.5h-0.8c-0.4,0-0.4,0-0.4,0.7v6.8
	c0,1.7,0.1,1.7,0.8,1.8l0.5,0.1c0.1,0.1,0.1,0.4,0,0.5c-0.7,0-1.3,0-2,0c-0.6,0-1.2,0-2.1,0c-0.1-0.1-0.1-0.4,0-0.5l0.6-0.1
	c0.6-0.1,0.8-0.1,0.8-1.8C19.5,136.1,19.5,129.2,19.5,129.2z M29.7,133.3c-0.7,0-0.7,0-0.7,0.5v2.3c0,1.7,0.1,1.7,0.8,1.8l0.4,0.1
	c0.1,0.1,0.1,0.4,0,0.5c-0.6,0-1.3,0-1.9,0s-1.2,0-1.7,0c-0.1-0.1-0.1-0.3,0-0.5h0.2c0.6-0.1,0.8-0.2,0.8-1.8v-5.9
	c0-1.7-0.1-1.7-0.8-1.8h-0.3c-0.1-0.1-0.1-0.4,0-0.5c0.6,0,1.2,0,1.8,0c0.6,0,1.2,0,1.7,0c0.1,0.1,0.1,0.4,0,0.5h-0.2
	c-0.6,0.1-0.8,0.1-0.8,1.8v1.9c0,0.4,0,0.5,0.7,0.5h3.2c0.7,0,0.7,0,0.7-0.5v-1.9c0-1.7-0.1-1.7-0.8-1.8h-0.3
	c-0.1-0.1-0.1-0.4,0-0.5c0.6,0,1.2,0,1.8,0s1.2,0,1.7,0c0.1,0.1,0.1,0.4,0,0.5h-0.2c-0.6,0.1-0.8,0.1-0.8,1.8v5.9
	c0,1.7,0.1,1.7,0.8,1.8h0.3c0.1,0.1,0.1,0.4,0,0.5c-0.6,0-1.2,0-1.8,0s-1.2,0-1.8,0c-0.1-0.1-0.1-0.3,0-0.5h0.3
	c0.6-0.1,0.8-0.1,0.8-1.8v-2.3c0-0.4,0-0.5-0.7-0.5C32.8,133.3,29.7,133.3,29.7,133.3z M39.6,130.2c0-1.7-0.1-1.7-0.8-1.8h-0.2
	c-0.1-0.1-0.1-0.4,0-0.5c0.5,0,1.1,0,1.7,0H43c0.9,0,1.6,0,1.8,0c0.1,0.3,0.1,1.5,0.2,2.2c-0.1,0.1-0.3,0.2-0.4,0.1
	c-0.2-0.9-0.4-1.3-0.8-1.4c-0.3-0.1-0.7-0.1-1.1-0.1h-0.9c-0.6,0-0.6,0-0.6,0.9v2.7c0,0.4,0,0.4,0.3,0.4h0.6c1.2,0,1.4,0,1.5-0.7
	l0.1-0.5c0.1-0.1,0.4-0.1,0.4,0c0,0.4,0,1,0,1.6s0,1.2,0,1.7c-0.1,0.1-0.3,0.1-0.4,0l-0.1-0.6c-0.1-0.7-0.3-0.7-1.5-0.7h-0.6
	c-0.3,0-0.3,0-0.3,0.4v2c0,0.8,0,1.4,0.2,1.6c0.2,0.2,0.4,0.3,1.5,0.3c1.7,0,2-0.4,2.5-1.7c0.1-0.1,0.3-0.1,0.4,0.1
	c-0.1,0.7-0.4,1.9-0.6,2.3c-0.6,0-1.8,0-3.3,0h-1.5c-0.6,0-1.4,0-2,0c-0.1-0.1-0.1-0.4,0-0.5l0.5-0.1c0.6-0.1,0.8-0.1,0.8-1.8
	L39.6,130.2L39.6,130.2z M56.1,133.3c-0.7,0-0.7,0-0.7,0.5v2.3c0,1.7,0.1,1.7,0.8,1.8l0.4,0.1c0.1,0.1,0.1,0.4,0,0.5
	c-0.6,0-1.3,0-1.9,0c-0.6,0-1.2,0-1.7,0c-0.1-0.1-0.1-0.3,0-0.5h0.2c0.6-0.1,0.8-0.2,0.8-1.8v-5.9c0-1.7-0.1-1.7-0.8-1.8h-0.3
	c-0.1-0.1-0.1-0.4,0-0.5c0.6,0,1.2,0,1.8,0s1.2,0,1.7,0c0.1,0.1,0.1,0.4,0,0.5h-0.2c-0.6,0.1-0.8,0.1-0.8,1.8v1.9
	c0,0.4,0,0.5,0.7,0.5h3.2c0.7,0,0.7,0,0.7-0.5v-1.9c0-1.7-0.1-1.7-0.8-1.8h-0.3c-0.1-0.1-0.1-0.4,0-0.5c0.6,0,1.2,0,1.8,0
	s1.2,0,1.7,0c0.1,0.1,0.1,0.4,0,0.5h-0.2c-0.6,0.1-0.8,0.1-0.8,1.8v5.9c0,1.7,0.1,1.7,0.8,1.8h0.3c0.1,0.1,0.1,0.4,0,0.5
	c-0.6,0-1.2,0-1.8,0s-1.2,0-1.8,0c-0.1-0.1-0.1-0.3,0-0.5h0.3c0.6-0.1,0.8-0.1,0.8-1.8v-2.3c0-0.4,0-0.5-0.7-0.5h-3.2V133.3z
	 M74.5,133.2c0,3.1-2,5.5-4.7,5.5c-3,0-4.8-2.5-4.8-5.3c0-3.2,2-5.6,4.8-5.6C72.9,127.6,74.5,130.3,74.5,133.2 M66.8,132.8
	c0,2.2,0.8,5.2,3.1,5.2c1.5,0,2.8-1.3,2.8-4.5c0-2.4-0.9-5.2-3.1-5.2C68.2,128.3,66.8,129.4,66.8,132.8 M79.7,129.2
	c0-0.7,0-0.7-0.4-0.7h-0.8c-1.2,0-1.6,0.2-2.1,1.5c-0.1,0.1-0.4,0-0.4-0.1c0.2-0.8,0.4-1.6,0.5-2.4l0.1-0.1c0.1,0,0.1,0,0.1,0.1
	c0.1,0.4,0.3,0.4,1.2,0.4h5.5c0.7,0,0.9,0,1-0.4c0.1,0,0.1-0.1,0.2-0.1s0.1,0,0.2,0.1c-0.1,0.6-0.2,2-0.2,2.5
	c-0.1,0.1-0.3,0.2-0.4,0c-0.2-1.2-0.4-1.5-1.9-1.5h-0.8c-0.3,0-0.4,0-0.4,0.7v6.8c0,1.7,0.1,1.7,0.8,1.8l0.5,0.1
	c0.1,0.1,0.1,0.4,0,0.5c-0.7,0-1.3,0-2,0c-0.6,0-1.2,0-2.1,0c-0.1-0.1-0.1-0.4,0-0.5l0.6-0.1c0.6-0.1,0.8-0.1,0.8-1.8L79.7,129.2
	L79.7,129.2z M88.4,130.2c0-1.7-0.1-1.7-0.8-1.8h-0.2c-0.1-0.1-0.1-0.4,0-0.5c0.5,0,1.1,0,1.7,0h2.6c0.9,0,1.6,0,1.8,0
	c0.1,0.3,0.1,1.5,0.2,2.2c-0.1,0.1-0.3,0.2-0.4,0.1c-0.2-0.9-0.4-1.3-0.8-1.4c-0.3-0.1-0.7-0.1-1.1-0.1h-0.9c-0.6,0-0.6,0-0.6,0.9
	v2.7c0,0.4,0,0.4,0.3,0.4h0.6c1.2,0,1.4,0,1.5-0.7l0.1-0.5c0.1-0.1,0.4-0.1,0.4,0c0,0.4,0,1,0,1.6s0,1.2,0,1.7
	c-0.1,0.1-0.3,0.1-0.4,0l-0.1-0.6c-0.1-0.7-0.3-0.7-1.5-0.7h-0.6c-0.3,0-0.3,0-0.3,0.4v2c0,0.8,0,1.4,0.2,1.6
	c0.2,0.2,0.4,0.3,1.5,0.3c1.7,0,2-0.4,2.5-1.7c0.1-0.1,0.3-0.1,0.4,0.1c-0.1,0.7-0.4,1.9-0.6,2.3c-0.6,0-1.8,0-3.3,0h-1.5
	c-0.6,0-1.4,0-2,0c-0.1-0.1-0.1-0.4,0-0.5l0.5-0.1c0.6-0.1,0.8-0.1,0.8-1.8L88.4,130.2L88.4,130.2z M99.7,135.7c0,0.8,0,1.4,0.2,1.6
	c0.2,0.2,0.4,0.3,1.5,0.3c1.5,0,1.7-0.1,2.3-1.7c0.1-0.1,0.3,0,0.4,0.1c-0.1,0.7-0.4,1.9-0.6,2.3c-0.6,0-1.7,0-3.2,0h-1.4
	c-0.7,0-1.4,0-1.9,0c-0.1-0.1-0.1-0.4,0-0.5l0.4-0.1c0.6-0.1,0.8-0.1,0.8-1.8V130c0-1.6-0.1-1.7-0.8-1.8l-0.4-0.1
	c-0.1-0.1-0.1-0.4,0-0.5c0.7,0,1.3,0,1.9,0s1.2,0,1.8,0c0.1,0.1,0.1,0.4,0,0.5l-0.3,0.1c-0.6,0.1-0.8,0.2-0.8,1.8L99.7,135.7
	L99.7,135.7z M117.7,136.7c0,0.6,0.1,1,0.3,1.1c0,0.1,0,0.2,0,0.2c-0.1,0-0.4,0-0.6,0.1c-0.8,0.2-1.8,0.4-2.6,0.4
	c-1.6,0-3.1-0.5-4.1-1.7c-0.8-1-1.2-2.3-1.2-3.6s0.4-2.7,1.2-3.7c1-1.2,2.4-1.9,4.3-1.9c0.6,0,1.3,0.1,1.8,0.2
	c0.3,0.1,0.7,0.1,0.9,0.1c0,0.5,0.1,1.3,0.2,2.5c-0.1,0.2-0.4,0.2-0.4,0c-0.3-1.5-1.3-2.3-2.6-2.3c-2.4,0-3.5,2-3.5,4.7
	c0,1.3,0.2,2.6,1,3.6c0.6,0.8,1.6,1.3,2.6,1.3c0.6,0,1-0.1,1.2-0.4c0.1-0.1,0.1-0.4,0.1-1V136c0-1.1,0-1.2-0.9-1.4l-0.5-0.1
	c-0.1-0.1-0.1-0.4,0-0.5c0.5,0,1.2,0,2.1,0c0.6,0,1.1,0,1.6,0c0.1,0.1,0.1,0.3,0,0.5h-0.2c-0.5,0.1-0.6,0.2-0.6,1.2L117.7,136.7
	L117.7,136.7z M140.3,133.2c0,3.1-2,5.5-4.7,5.5c-3,0-4.8-2.5-4.8-5.3c0-3.2,2-5.6,4.8-5.6C138.7,127.6,140.3,130.3,140.3,133.2
	 M132.6,132.8c0,2.2,0.8,5.2,3.1,5.2c1.5,0,2.8-1.3,2.8-4.5c0-2.4-0.9-5.2-3.1-5.2C134,128.3,132.6,129.4,132.6,132.8 M143.5,130.2
	c0-1.7-0.1-1.7-0.8-1.8h-0.2c-0.1-0.1-0.1-0.4,0-0.4c1.2,0.1,2.4,0.1,3.5,0c0.1,0.1,0.1,0.3,0,0.4h-0.3c-0.6,0.1-0.8,0.2-0.8,1.8
	v3.6c0,2.2,0.6,4,2.4,4c1.8,0,2.5-1.6,2.5-4v-2c0-1.2,0-2.7-0.3-3.1c-0.1-0.2-0.3-0.3-0.7-0.4h-0.3c-0.1-0.1-0.1-0.4,0-0.4
	c0.5,0,1,0,1.5,0c0.6,0,0.9,0,1.4,0c0.1,0.1,0.1,0.3,0,0.4l-0.3,0.1c-0.3,0.1-0.5,0.1-0.6,0.4c-0.2,0.5-0.2,1.9-0.2,3.1v1.9
	c0,1.4-0.2,2.8-0.9,3.7s-1.7,1.2-2.6,1.2c-1.3,0-2.2-0.3-2.8-1s-0.9-1.8-0.9-3.4L143.5,130.2L143.5,130.2z M155.5,130.3
	c0-1.4,0-1.7-0.6-1.8l-0.5-0.1c-0.1-0.1-0.1-0.4,0-0.4c0.9-0.1,1.8-0.1,3-0.1c1.3,0,2.2,0.2,2.8,0.6c0.7,0.5,1.1,1.3,1.1,2.4
	c0,2.4-2,3.1-3,3.1c-0.1,0-0.2,0-0.3,0c-0.1-0.1-0.1-0.3,0-0.4c1.2-0.3,1.7-1.3,1.7-2.6s-0.7-2.4-1.9-2.4c-0.7,0-0.7,0-0.7,0.7v6.9
	c0,1.7,0.1,1.7,0.8,1.8l0.5,0.1c0.1,0.1,0.1,0.4,0,0.5c-0.8,0-1.4,0-2,0s-1.2,0-1.7,0c-0.1-0.1-0.1-0.4,0-0.5h0.2
	c0.6-0.1,0.8-0.2,0.8-1.8L155.5,130.3L155.5,130.3z M11.5,114.9c0.1,0.1,0.1,0.4,0,0.5c-0.5,0-1.1,0-1.6,0c-0.6,0-1.2,0-1.8,0
	c-0.1-0.1-0.2-0.4,0-0.5l0.4-0.1c0.5-0.1,0.6-0.2,0.6-1.3V107l0,0c-0.4,0.9-0.6,1.3-0.8,2L7,111.8c-0.5,1.1-1.1,2.9-1.4,3.6
	c-0.1,0.1-0.3,0.1-0.3,0c-0.2-0.9-0.8-2.4-1.1-3.2l-1.2-3c-0.3-0.7-0.5-1.4-0.8-2.1l0,0c0,0.8-0.1,2-0.1,2.7c0,1-0.1,2.4-0.1,3.7
	c0,1,0,1.3,0.6,1.4L3,115c0.1,0.1,0.1,0.4,0,0.5c-1-0.1-1.9-0.1-2.9,0c-0.1-0.1-0.1-0.4,0-0.5h0.2c0.6-0.1,0.8-0.3,0.8-1.3
	c0.1-1,0.1-2,0.2-3.7c0.1-1.1,0.1-2.4,0.1-3.4c0-0.7-0.2-1.1-0.7-1.2l-0.5-0.1c-0.1-0.1-0.1-0.4,0.1-0.5c0.4,0,0.8,0,1.3,0
	s0.9,0,1.4,0c0.1,1,0.4,1.8,0.7,2.6l1.5,3.7c0.1,0.3,0.5,1.1,0.6,1.4c0.2-0.5,0.4-0.9,0.7-1.6l1.3-3c0.4-1,0.9-2,1.1-3
	c0.4,0,0.8,0,1.1,0c0.6,0,1,0,1.4,0c0.1,0.1,0.2,0.4,0,0.5l-0.4,0.1c-0.6,0.1-0.7,0.4-0.7,1.2c0,2.3,0,4.7,0.1,7
	c0,1.1,0.2,1.2,0.6,1.2C11.1,114.8,11.5,114.9,11.5,114.9z M16.8,111.4c-0.4,0-0.3,0-0.5,0.4l-0.6,1.9c-0.3,0.9-0.2,1,0.3,1.1
	l0.4,0.1c0.1,0.1,0.1,0.4,0,0.5c-0.4,0-0.9,0-1.4,0c-0.4,0-0.9,0-1.3,0c-0.1-0.1-0.1-0.3,0-0.5l0.4-0.1c0.4-0.1,0.5-0.2,0.7-0.7
	c0.2-0.4,0.4-1.1,0.7-1.9l1.8-5.6c0.2-0.5,0.3-0.9,0.3-1.2c0.5-0.1,0.9-0.8,0.9-0.8c0.1,0,0.2,0,0.2,0.1c0.2,0.7,0.4,1.5,0.6,2.2
	l1.9,6.6c0.3,1.1,0.4,1.2,1.1,1.3h0.2c0.1,0.1,0.1,0.4,0,0.5c-0.6,0-1.2,0-1.8,0c-0.6,0-1.2,0-1.6,0c-0.1-0.1-0.1-0.4,0-0.5h0.3
	c0.5-0.1,0.5-0.2,0.4-0.8l-0.6-2.2c-0.1-0.4-0.2-0.4-0.6-0.4H16.8L16.8,111.4z M18.4,110.7c0.4,0,0.4,0,0.3-0.4l-0.6-1.9
	c-0.2-0.8-0.3-1.1-0.4-1.3l0,0c-0.1,0.1-0.2,0.5-0.4,1.3l-0.6,1.9c-0.1,0.5-0.1,0.5,0.2,0.5C17,110.7,18.4,110.7,18.4,110.7z
	 M32.9,112.6c0,0.5,0,2.4,0,2.8c-0.1,0.2-0.3,0.2-0.5,0.2c-0.2-0.3-0.6-0.9-1.6-2.2l-3.2-4.2c-0.9-1.2-1.3-1.8-1.5-2c0,0,0,0.2,0,1
	v3.1c0,1.2,0,2.6,0.2,3.1c0.1,0.2,0.4,0.3,0.7,0.4h0.3c0.1,0.1,0.1,0.4,0,0.5c-0.5,0-1,0-1.5,0c-0.6,0-0.9,0-1.4,0
	c-0.1-0.1-0.1-0.3,0-0.5l0.3-0.1c0.3,0,0.5-0.1,0.6-0.4c0.2-0.5,0.2-1.9,0.2-3.1v-3.8c0-1.2,0-1.5-0.4-1.9c-0.1-0.1-0.5-0.3-0.7-0.3
	h-0.2c-0.1-0.1-0.1-0.4,0.1-0.5c0.5,0.1,1.3,0,1.6,0c0.3,0,0.6,0,0.9,0c0.2,0.7,1.7,2.7,2.2,3.3l1.3,1.7c0.6,0.7,1.8,2.4,2,2.5
	c0,0,0-0.1,0-0.4v-3.1c0-1.2,0-2.6-0.3-3.1c-0.1-0.2-0.3-0.3-0.7-0.4H31c-0.1-0.1-0.1-0.4,0-0.5c0.5,0,1,0,1.5,0c0.6,0,0.9,0,1.4,0
	c0.1,0.1,0.1,0.3,0,0.5l-0.3,0.1c-0.3,0-0.5,0.1-0.6,0.4c-0.2,0.5-0.2,1.9-0.2,3.1C32.9,108.8,32.9,112.6,32.9,112.6z M37.9,107.2
	c0-1.5,0-1.7-0.6-1.8H37c-0.1-0.1-0.1-0.4,0-0.4c1-0.1,2-0.1,3.4-0.1c1.3,0,2.2,0.1,3.2,0.5c1.6,0.7,2.8,2.4,2.8,4.7
	c0,1.8-0.7,3.6-2.4,4.6c-1,0.6-2.1,0.8-3.3,0.8c-0.8,0-1.5-0.1-2-0.1s-1.1,0-1.7,0c-0.1-0.1-0.1-0.3,0-0.5h0.3
	c0.6-0.1,0.8-0.1,0.8-1.8C37.9,113,37.9,107.2,37.9,107.2z M39.5,112.4c0,1.5,0.1,2.4,1.5,2.4c2.4,0,3.5-2,3.5-4.7
	c0-3.1-1.5-4.7-3.8-4.7c-0.6,0-1,0.1-1.1,0.2s-0.1,0.4-0.1,1.2C39.5,106.8,39.5,112.4,39.5,112.4z M50.3,111.4c-0.3,0-0.3,0-0.5,0.4
	l-0.6,1.9c-0.3,0.9-0.2,1,0.3,1.1l0.4,0.1c0.1,0.1,0.1,0.4,0,0.5c-0.4,0-0.9,0-1.4,0c-0.4,0-0.9,0-1.3,0c-0.1-0.1-0.1-0.3,0-0.5
	l0.4-0.1c0.4-0.1,0.5-0.2,0.7-0.7c0.2-0.4,0.4-1.1,0.7-1.9l1.8-5.6c0.2-0.5,0.3-0.9,0.3-1.2c0.5-0.1,0.9-0.8,0.9-0.8
	c0.1,0,0.2,0,0.2,0.1c0.2,0.7,0.4,1.5,0.6,2.2l1.9,6.6c0.3,1.1,0.4,1.2,1.1,1.3H56c0.1,0.1,0.1,0.4,0,0.5c-0.6,0-1.2,0-1.8,0
	s-1.2,0-1.6,0c-0.1-0.1-0.1-0.4,0-0.5h0.3c0.5-0.1,0.5-0.2,0.3-0.8l-0.6-2.2c-0.1-0.4-0.2-0.4-0.6-0.4H50.3L50.3,111.4z M51.9,110.7
	c0.4,0,0.4,0,0.3-0.4l-0.6-1.9c-0.2-0.8-0.3-1.1-0.4-1.3l0,0c-0.1,0.1-0.2,0.5-0.4,1.3l-0.6,1.9c-0.1,0.5-0.1,0.5,0.2,0.5
	C50.5,110.7,51.9,110.7,51.9,110.7z M58.7,107.2c0-1.5,0-1.7-0.6-1.8h-0.3c-0.1-0.1-0.1-0.4,0-0.4c0.8-0.1,2-0.1,3.1-0.1
	s2,0.2,2.6,0.5c0.7,0.4,1.2,1.2,1.2,2.3c0,1.5-1,2.2-1.6,2.5c-0.1,0-0.1,0.2,0,0.3c1.1,2.1,1.8,3.5,2.4,4.1c0.4,0.4,0.6,0.4,0.7,0.4
	c0.1,0.1,0,0.4,0,0.4h-2.3c0,0-0.4-0.5-1.2-2c-0.4-0.7-0.7-1.5-1.1-2.2c-0.2-0.5-0.4-0.5-0.8-0.5c-0.4,0-0.4,0-0.4,0.3v2
	c0,1.7,0.1,1.7,0.8,1.8h0.3c0.1,0.1,0.1,0.4,0,0.5c-1.2-0.1-2.4-0.1-3.6,0c-0.1-0.1-0.1-0.3,0-0.5h0.3c0.6-0.1,0.8-0.1,0.8-1.8
	C58.7,113,58.7,107.2,58.7,107.2z M60.3,109.5c0,0.5,0,0.5,0.6,0.5c1.3,0,1.9-0.8,1.9-2.3c0-1.3-0.7-2.3-1.9-2.3
	c-0.7,0-0.7,0-0.7,0.8C60.3,106.2,60.3,109.5,60.3,109.5z M106,107.2c0-1.5,0-1.7-0.6-1.8h-0.3c-0.1-0.1-0.1-0.4,0-0.4
	c0.8-0.1,2-0.1,3.1-0.1s2,0.2,2.6,0.5c0.7,0.4,1.2,1.2,1.2,2.3c0,1.5-1,2.2-1.6,2.5c-0.1,0-0.1,0.2,0,0.3c1.1,2.1,1.8,3.5,2.4,4.1
	c0.4,0.4,0.6,0.4,0.7,0.4c0.1,0.1,0,0.4,0,0.4h-2.3c0,0-0.4-0.5-1.2-2c-0.4-0.7-0.7-1.5-1.1-2.2c-0.2-0.5-0.4-0.5-0.8-0.5
	s-0.4,0-0.4,0.3v2c0,1.7,0.1,1.7,0.8,1.8h0.3c0.1,0.1,0.1,0.4,0,0.5c-1.2-0.1-2.4-0.1-3.6,0c-0.1-0.1-0.1-0.3,0-0.5h0.3
	c0.6-0.1,0.8-0.1,0.8-1.8L106,107.2L106,107.2z M107.6,109.5c0,0.5,0,0.5,0.6,0.5c1.3,0,1.9-0.8,1.9-2.3c0-1.3-0.7-2.3-1.9-2.3
	c-0.7,0-0.7,0-0.7,0.8C107.6,106.2,107.6,109.5,107.6,109.5z M70.6,113c0,1.7,0.1,1.7,0.8,1.8h0.3c0.1,0.1,0.1,0.4,0,0.5
	c-1.2-0.1-2.4-0.1-3.6,0c-0.1-0.1-0.1-0.3,0-0.5h0.3c0.6-0.1,0.8-0.1,0.8-1.8v-5.9c0-1.7-0.1-1.7-0.8-1.8h-0.3
	c-0.1-0.1-0.1-0.4,0-0.5c1.2,0.1,2.4,0.1,3.6,0c0.1,0.1,0.1,0.3,0,0.5h-0.3c-0.6,0.1-0.8,0.1-0.8,1.8V113z M83.6,112.6
	c0,0.5,0,2.4,0,2.8c-0.1,0.2-0.3,0.2-0.5,0.2c-0.2-0.3-0.6-0.9-1.6-2.2l-3.2-4.2c-0.9-1.2-1.3-1.8-1.5-2c0,0,0,0.2,0,1v3.1
	c0,1.2,0,2.6,0.2,3.1c0.1,0.2,0.3,0.3,0.7,0.4H78c0.1,0.1,0.1,0.4,0,0.5c-0.5,0-1,0-1.5,0c-0.6,0-0.9,0-1.4,0
	c-0.1-0.1-0.1-0.3,0-0.5l0.3-0.1c0.3,0,0.5-0.1,0.6-0.4c0.2-0.5,0.2-1.9,0.2-3.1v-3.8c0-1.2,0-1.5-0.4-1.9c-0.1-0.1-0.5-0.3-0.7-0.3
	h-0.2c-0.1-0.1-0.1-0.4,0.1-0.5c0.5,0.1,1.3,0,1.6,0c0.3,0,0.6,0,0.9,0c0.2,0.7,1.7,2.7,2.2,3.3l1.3,1.7c0.6,0.7,1.8,2.4,2,2.5
	c0,0,0-0.1,0-0.4v-3.1c0-1.2,0-2.6-0.3-3.1c-0.1-0.2-0.3-0.3-0.7-0.4h-0.3c-0.1-0.1-0.1-0.4,0-0.5c0.5,0,1,0,1.5,0
	c0.6,0,0.9,0,1.4,0c0.1,0.1,0.1,0.3,0,0.5l-0.3,0.1c-0.3,0-0.5,0.1-0.6,0.4c-0.2,0.5-0.2,1.9-0.2,3.1
	C83.6,108.8,83.6,112.6,83.6,112.6z M102,110.1c0,3.1-2,5.4-4.7,5.4c-3,0-4.8-2.5-4.8-5.3c0-3.2,2-5.6,4.8-5.6
	C100.4,104.6,102,107.2,102,110.1 M94.3,109.7c0,2.2,0.8,5.2,3.1,5.2c1.5,0,2.8-1.3,2.8-4.5c0-2.4-0.9-5.2-3.1-5.2
	C95.8,105.2,94.3,106.3,94.3,109.7 M119,113c0,1.7,0.1,1.7,0.8,1.8h0.3c0.1,0.1,0.1,0.4,0,0.5c-1.2-0.1-2.4-0.1-3.6,0
	c-0.1-0.1-0.1-0.3,0-0.5h0.3c0.6-0.1,0.8-0.1,0.8-1.8v-5.9c0-1.7-0.1-1.7-0.8-1.8h-0.3c-0.1-0.1-0.1-0.4,0-0.5
	c1.2,0.1,2.4,0.1,3.6,0c0.1,0.1,0.1,0.3,0,0.5h-0.3c-0.6,0.1-0.8,0.1-0.8,1.8V113z M125.3,107.1c0-1.7-0.1-1.7-0.8-1.8h-0.2
	c-0.1-0.1-0.1-0.4,0-0.5c0.5,0,1.1,0,1.7,0h2.6c0.9,0,1.6,0,1.8,0c0.1,0.3,0.1,1.5,0.2,2.2c-0.1,0.1-0.3,0.2-0.4,0.1
	c-0.2-0.9-0.4-1.3-0.8-1.4c-0.3-0.1-0.7-0.1-1.1-0.1h-0.9c-0.6,0-0.6,0-0.6,0.9v2.7c0,0.4,0,0.4,0.3,0.4h0.6c1.2,0,1.4,0,1.5-0.7
	l0.1-0.5c0.1-0.1,0.4-0.1,0.4,0c0,0.4,0,1,0,1.6s0,1.2,0,1.7c-0.1,0.1-0.3,0.1-0.4,0l-0.1-0.6c-0.1-0.7-0.3-0.7-1.5-0.7h-0.6
	c-0.3,0-0.3,0-0.3,0.4v2c0,0.8,0,1.4,0.2,1.6s0.4,0.3,1.5,0.3c1.7,0,2-0.4,2.5-1.7c0.1-0.1,0.4-0.1,0.4,0.1
	c-0.1,0.7-0.4,1.9-0.6,2.3c-0.6,0-1.7,0-3.3,0H126c-0.6,0-1.4,0-2,0c-0.1-0.1-0.1-0.3,0-0.5l0.5-0.1c0.6-0.1,0.8-0.1,0.8-1.8
	L125.3,107.1L125.3,107.1z M143.2,112.6c0,0.5,0,2.4,0,2.8c-0.1,0.2-0.3,0.2-0.5,0.2c-0.2-0.3-0.6-0.9-1.6-2.2l-3.2-4.2
	c-0.9-1.2-1.3-1.8-1.5-2c0,0,0,0.2,0,1v3.1c0,1.2,0,2.6,0.2,3.1c0.1,0.2,0.4,0.3,0.7,0.4h0.3c0.1,0.1,0.1,0.4,0,0.5
	c-0.5,0-1,0-1.5,0c-0.6,0-0.9,0-1.4,0c-0.1-0.1-0.1-0.3,0-0.5l0.3-0.1c0.3,0,0.5-0.1,0.6-0.4c0.2-0.5,0.2-1.9,0.2-3.1v-3.8
	c0-1.2,0-1.5-0.4-1.9c-0.1-0.1-0.5-0.3-0.7-0.3h-0.2c-0.1-0.1-0.1-0.4,0.1-0.5c0.5,0.1,1.3,0,1.6,0s0.6,0,0.9,0
	c0.2,0.7,1.7,2.7,2.2,3.3l1.3,1.7c0.6,0.7,1.8,2.4,2,2.5c0,0,0-0.1,0-0.4v-3.1c0-1.2,0-2.6-0.3-3.1c-0.1-0.2-0.3-0.3-0.7-0.4h-0.3
	c-0.1-0.1-0.1-0.4,0-0.5c0.5,0,1,0,1.5,0c0.6,0,0.9,0,1.4,0c0.1,0.1,0.1,0.3,0,0.5l-0.3,0.1c-0.3,0-0.5,0.1-0.6,0.4
	c-0.2,0.5-0.2,1.9-0.2,3.1L143.2,112.6L143.2,112.6z M150.9,106.1c0-0.7,0-0.7-0.4-0.7h-0.8c-1.2,0-1.6,0.2-2.1,1.5
	c-0.1,0.1-0.4,0-0.4-0.1c0.2-0.9,0.4-1.8,0.5-2.4l0.1-0.1c0.1,0,0.1,0,0.1,0.1c0.1,0.4,0.3,0.4,1.2,0.4h5.5c0.7,0,0.9,0,1-0.4
	c0.1,0,0.1-0.1,0.2-0.1c0.1,0,0.1,0,0.2,0.1c-0.1,0.6-0.2,2-0.2,2.5c-0.1,0.1-0.3,0.2-0.4,0c-0.2-1.2-0.4-1.5-1.9-1.5h-0.8
	c-0.4,0-0.4,0-0.4,0.7v6.8c0,1.7,0.1,1.7,0.8,1.8l0.5,0.1c0.1,0.1,0.1,0.4,0,0.5c-0.7,0-1.3,0-2,0c-0.6,0-1.2,0-2.1,0
	c-0.1-0.1-0.1-0.4,0-0.5l0.6-0.1c0.6-0.1,0.8-0.1,0.8-1.8L150.9,106.1L150.9,106.1z M160.7,111.4c-0.4,0-0.3,0-0.5,0.4l-0.6,1.9
	c-0.3,0.9-0.2,1,0.3,1.1l0.4,0.1c0.1,0.1,0.1,0.4,0,0.5c-0.4,0-0.9,0-1.4,0c-0.4,0-0.9,0-1.3,0c-0.1-0.1-0.1-0.3,0-0.5l0.4-0.1
	c0.4-0.1,0.5-0.2,0.7-0.7c0.2-0.4,0.4-1.1,0.7-1.9l1.8-5.6c0.2-0.5,0.3-0.9,0.3-1.2c0.5-0.1,0.9-0.8,0.9-0.8c0.1,0,0.2,0,0.2,0.1
	c0.2,0.7,0.4,1.5,0.6,2.2l1.9,6.6c0.3,1.1,0.4,1.2,1.1,1.3h0.2c0.1,0.1,0.1,0.4,0,0.5c-0.6,0-1.2,0-1.8,0s-1.2,0-1.6,0
	c-0.1-0.1-0.1-0.4,0-0.5h0.3c0.5-0.1,0.5-0.2,0.4-0.8l-0.6-2.2c-0.1-0.4-0.2-0.4-0.6-0.4H160.7L160.7,111.4z M162.3,110.7
	c0.4,0,0.4,0,0.3-0.4l-0.6-1.9c-0.2-0.8-0.3-1.1-0.4-1.3l0,0c-0.1,0.1-0.2,0.5-0.4,1.3l-0.6,1.9c-0.1,0.5-0.1,0.5,0.2,0.5
	C160.9,110.7,162.3,110.7,162.3,110.7z M171.9,112.6c0,0.8,0,1.4,0.2,1.6s0.4,0.3,1.5,0.3c1.5,0,1.7-0.1,2.3-1.7
	c0.1-0.1,0.4,0,0.4,0.1c-0.1,0.7-0.4,1.9-0.6,2.3c-0.6,0-1.7,0-3.2,0h-1.4c-0.7,0-1.4,0-1.9,0c-0.1-0.1-0.1-0.4,0-0.5l0.4-0.1
	c0.6-0.1,0.8-0.1,0.8-1.8v-5.9c0-1.6-0.1-1.7-0.8-1.8l-0.4-0.1c-0.1-0.1-0.1-0.4,0-0.5c0.7,0,1.3,0,1.9,0c0.6,0,1.2,0,1.8,0
	c0.1,0.1,0.1,0.4,0,0.5l-0.3,0.1c-0.6,0.1-0.8,0.2-0.8,1.8L171.9,112.6L171.9,112.6z M91.9,65.8c-1.6-0.1-3.3-0.1-4.9,0l2.1,19.8H90
	C90,85.7,91.9,65.8,91.9,65.8z M92.1,64.2c-1.7-0.1-3.5-0.1-5.3,0L79.9,0l18.2,2.4C98.1,2.4,92.1,64.2,92.1,64.2z M98.5,67
	c-1.6-0.5-3.2-0.8-4.8-1l-2.1,19.8l0.8,0.2L98.5,67z M99,65.5c-1.7-0.5-3.4-0.9-5.1-1.1l6.7-64.2l17.3,6.2L99,65.5z M85.2,66
	c-1.6,0.2-3.2,0.6-4.8,1l6.2,19l0.8-0.2C87.5,85.8,85.2,66,85.2,66z M85,64.4c-1.7,0.2-3.5,0.6-5.1,1.1L59.7,4.2L78,2.7L85,64.4z
	 M78.7,67.6c-0.8,0.3-1.5,0.6-2.2,0.9c-0.8,0.3-1.5,0.7-2.3,1.1l10.1,17.2l0.8-0.4C85.1,86.5,78.7,67.6,78.7,67.6z M78.2,66.1
	c-1.7,0.6-3.3,1.3-4.8,2.2L40.9,12.5l17.6-5.2L78.2,66.1z M72.7,70.5c-0.7,0.4-1.3,0.9-2,1.3c-0.7,0.5-1.3,1-2,1.6l13.4,14.7
	l0.7-0.5C82.9,87.7,72.7,70.5,72.7,70.5z M71.9,69.1c-0.7,0.4-1.4,0.9-2.1,1.4s-1.4,1.1-2.1,1.7L24.1,24.5l16.1-8.8L71.9,69.1z
	 M67.5,74.6c-1.2,1.1-2.3,2.4-3.3,3.7l16.2,11.6l0.6-0.6C81,89.3,67.5,74.6,67.5,74.6z M66.3,73.4c-1.3,1.2-2.4,2.5-3.5,3.9
	L10.3,39.8l13.9-12L66.3,73.4z M63.2,79.8c-0.9,1.4-1.7,2.8-2.4,4.3L79,92l0.4-0.7L63.2,79.8z M61.8,78.8c-1,1.5-1.9,3-2.6,4.6
	L0,57.6L11.1,43L61.8,78.8z M104.7,69.6c-1.4-0.8-2.9-1.5-4.5-2l-6.2,19l0.8,0.4C94.8,86.9,104.6,69.6,104.7,69.6z M105.5,68.2
	c-1.5-0.8-3.1-1.6-4.8-2.1l20-61.4l15.6,9.7C136.2,14.3,105.5,68.2,105.5,68.2z M110.2,73.4c-0.6-0.5-1.2-1-1.9-1.5
	c-0.7-0.5-1.4-1-2.1-1.4l-10,17.3l0.7,0.5C96.9,88.2,110.2,73.4,110.2,73.4z M111.3,72.1c-0.6-0.6-1.3-1.1-2-1.6s-1.5-1-2.2-1.5
	l32.4-55.9l13.3,12.7C152.6,25.9,111.3,72.1,111.3,72.1z M114.7,78.2c-1-1.3-2.1-2.5-3.3-3.7L98.1,89.3l0.6,0.6L114.7,78.2z
	 M116.1,77.3c-1.1-1.4-2.2-2.7-3.5-3.9l43.3-47.9l10.3,15.2L116.1,77.3L116.1,77.3z M118.2,83.9c-0.3-0.7-0.7-1.4-1.1-2.1
	s-0.9-1.4-1.3-2.1L99.6,91.3L100,92L118.2,83.9z M119.7,83.3c-0.7-1.6-1.6-3.1-2.6-4.6l52.4-37.8l6.9,17L119.7,83.3z"/>
</svg>
