<?xml version="1.0" encoding="UTF-8"?>
<!-- Generator: Adobe Illustrator 22.0.1, SVG Export Plug-In . SVG Version: 6.00 Build 0)  -->
<svg version="1.1" id="Layer_1" xmlns="http://www.w3.org/2000/svg" xmlns:xlink="http://www.w3.org/1999/xlink" x="0px" y="0px" viewBox="0 0 251.5 52.8" style="enable-background:new 0 0 251.5 52.8;" xml:space="preserve">
<style type="text/css">
	.st0{fill:#00172F;}
</style>
<g>
	<g>
		<path class="st0" d="M9.3,11.2c-0.8,0.1-1.8,0.2-2.4,0.2c-0.6,0-0.8,0-1.2-0.1v3.6c0,4.4,0,4.6,2.8,4.8c0.1,0,0.2,0.6-0.1,0.6    C7.6,20.1,6.1,20,4.8,20c-1.8,0-3.2,0-4.5,0.2c-0.2,0.1-0.1-0.6,0-0.6c2.7-0.3,2.8-0.2,2.8-4.8V5.8c0-3.4-0.1-4.5-1.8-4.5    C1,1.3,0.6,1.3,0.2,1.4C0,1.4-0.1,0.9,0.1,0.8c1.2-0.4,4.3-0.5,7.6-0.5c4.4,0,8.1,1.4,8.1,4.7c0,1.7-1.1,4.2-4.2,5.5    c1.6,4.4,6.4,9.6,9.8,9.6c0.1,0,0.2,0.6,0,0.6C14.2,20.7,10.7,16,9.3,11.2z M6,1.2c-0.2,0.6-0.2,2-0.2,4.2v5c0.4,0,0.6,0,1.2,0    c4.5,0,6.1-1.6,6.1-4.1c0-4.1-2.7-5.2-5.7-5.2C6.9,1.2,6.5,1.2,6,1.2z"/>
		<path class="st0" d="M29.7,10.6c0-5,4.7-10.6,11.4-10.6C47.5,0,52,4.8,52,10c0,5.1-4.7,10.7-11.4,10.7    C34.1,20.6,29.7,15.9,29.7,10.6z M32.4,9.6c0,6.7,4.5,10.1,8.8,10.1c4.6,0,8-3.2,8-8.7c0-6.7-4.5-10.1-8.8-10.1    C35.8,0.9,32.4,4.1,32.4,9.6z"/>
		<path class="st0" d="M64.2,18.6c-0.2-0.1,0.1-1.9,0.2-4c0-0.2,0.5-0.1,0.5,0c0.2,3.1,1.9,5.1,5.1,5.1c2.1,0,4-1.1,4-3.5    c0-5-9.1-5.1-9.1-10.6c0-2.8,2.5-5.6,6-5.6c1.8,0,2.9,0.4,4,1c0.2,0.1,0.5,1.3,0.5,3.3c0,0.2-0.6,0.1-0.6,0    c-0.4-2.2-1.8-3.4-4.1-3.4C68.8,0.9,67,2.1,67,4C67,8.8,76,8.7,76,14.5c0,3.3-2.6,6.1-6.2,6.1C67.6,20.6,65.9,19.9,64.2,18.6z"/>
		<path class="st0" d="M105.7,20.2c-1.1,0-3.1-0.2-5.3-0.2c-3.1,0-6.2,0-8.4,0.2c-0.3,0-0.1-0.6,0-0.6c3.1-0.3,3.1-0.2,3.1-4.8V5.8    c0-4.6-0.1-4.5-3.1-4.8c-0.1,0-0.3-0.6,0-0.5c2.2,0.2,5.2,0.2,8.3,0.2c2.2,0,4.3-0.1,6.1-0.2c-0.2,0.6-0.2,1.1-0.2,1.8    c0,0.3,0,0.9,0,1.2c0,0.2-0.5,0.1-0.5,0c-0.2-1.3-0.9-1.7-4.8-1.7h-2.9c-0.1,0.8-0.2,2.1-0.2,4.1v3.9h3.1c3.3,0,3.1-0.2,3.3-1    c0-0.1,0.5,0,0.6,0.1c-0.1,0.5-0.2,1.2-0.2,1.9c0,0.3,0,0.9,0,1.2c0.1,0.2-0.5,0.1-0.5,0c-0.2-0.9-0.4-1.3-3.1-1.3h-3.1v4.4    c0,3.9,0.5,4.3,1.9,4.3h1.6c4.6,0,4.9-0.4,5.4-2.4c0-0.1,0.6-0.1,0.5,0.1c-0.1,0.8-0.4,2.2-0.6,2.8    C106.4,20.1,106.2,20.2,105.7,20.2z"/>
		<path class="st0" d="M140.5,20.4c-0.1,0.1-0.4,0.2-0.5,0l-4.6-12.8l-5.7,12.9c-0.1,0.1-0.5,0.2-0.5,0l-5.8-14.6    c-1.5-3.6-1.9-4.7-4.3-4.9c-0.1,0-0.3-0.5,0-0.5c0.8,0.1,2.1,0.2,3.2,0.2c1.6,0,3.7,0,4.8-0.2c0.3,0,0.1,0.5,0,0.5    c-1.4,0.1-2.1,0.3-2.1,1.1c0,0.6,0.7,2.7,1.1,3.7l4.3,10.8l4.5-10.4l-0.2-0.4c-1.5-3.5-1.8-4.7-4.1-4.9c-0.1,0-0.2-0.5,0-0.5    c0.9,0.1,2.1,0.2,3.2,0.2c1.6,0,3.9,0,5.1-0.2c0.2-0.1,0.2,0.5,0.1,0.5c-1.9,0.2-2.5,0.4-2.5,1.3c0,0.7,0.3,1.8,0.9,3.5l3.7,10.8    l4.3-10.9c0.7-1.8,1.1-2.7,1.1-3.5c0-0.8-0.5-1-2-1.1c-0.1,0-0.3-0.5,0-0.5c0.9,0.1,1.8,0.2,3,0.2c1.7,0,1.6,0,2.8-0.2    c0.2-0.1,0.1,0.5,0,0.5c-1.9,0.2-2.5,1.5-3.9,4.9L140.5,20.4z"/>
		<path class="st0" d="M160.8,10.6c0-5,4.7-10.6,11.4-10.6c6.4,0,10.9,4.8,10.9,10c0,5.1-4.7,10.7-11.4,10.7    C165.2,20.6,160.8,15.9,160.8,10.6z M163.5,9.6c0,6.7,4.5,10.1,8.8,10.1c4.6,0,8-3.2,8-8.7c0-6.7-4.5-10.1-8.8-10.1    C166.9,0.9,163.5,4.1,163.5,9.6z"/>
		<path class="st0" d="M195.4,10.6c0-5,4.7-10.6,11.4-10.6c6.4,0,10.9,4.8,10.9,10c0,5.1-4.7,10.7-11.4,10.7    C199.8,20.6,195.4,15.9,195.4,10.6z M198.1,9.6c0,6.7,4.5,10.1,8.8,10.1c4.6,0,8-3.2,8-8.7c0-6.7-4.5-10.1-8.8-10.1    C201.5,0.9,198.1,4.1,198.1,9.6z"/>
		<path class="st0" d="M235.1,20c-1.8,0-3.6,0-4.9,0.2c-0.3,0-0.1-0.6,0-0.6c2.7-0.3,2.8-0.2,2.8-4.8V5.8c0-4.5-0.2-4.5-2.8-4.8    c-0.1,0-0.3-0.5,0-0.5c1.3,0.2,3.4,0.2,5.2,0.2c0.8,0,3.6-0.1,4.7-0.1c7.2,0,10.9,4.2,10.9,9.5c0,5.5-4.5,10.1-11.3,10.1    C238.6,20.2,235.9,20,235.1,20z M235.9,1.5c-0.2,0.9-0.2,1.9-0.2,4.2V16c0,3,0.5,3.3,4.8,3.3c4.4,0,7.7-3,7.7-8.2    c0-6.4-3.5-9.6-9.1-9.6C237.1,1.4,236.4,1.5,235.9,1.5z"/>
	</g>
	<g>
		<rect x="73.1" y="31.9" class="st0" width="104.8" height="0.4"/>
	</g>
	<g>
		<g>
			<path class="st0" d="M60,48.2v1.5c0,1.6,0,1.7,0.8,1.7c0.3,0,0.4,0,0.4,0.3c0,0.1,0,0.1-0.1,0.1c-0.6,0-1.2,0-1.9,0     c-0.6,0-1.2,0-1.9,0c-0.1,0-0.1,0-0.1-0.1c0-0.3,0-0.3,0.4-0.3c0.8,0,0.8-0.1,0.8-1.7V46c0-1.3-0.1-1.4-0.9-1.4     c-0.1,0-0.3-0.1-0.3-0.1c0-0.3,0-0.3,0.2-0.3c0.6,0,1.2,0,1.9,0c0.6,0,1.2,0,1.9,0c0.1,0,0.1,0,0.1,0.3c0,0.1-0.1,0.1-0.4,0.1     c-0.7,0-0.7,0.1-0.7,1.4v1.7h3.5V46c0-1.3-0.1-1.4-0.7-1.4c-0.2,0-0.4-0.1-0.4-0.1c0-0.3,0-0.3,0.1-0.3c0.6,0,1.2,0,1.9,0     c0.6,0,1.2,0,1.9,0c0.2,0,0.2,0,0.2,0.3c0,0.1-0.1,0.1-0.3,0.1c-0.9,0-0.9,0.1-0.9,1.4v3.7c0,1.6,0,1.7,0.8,1.7     c0.3,0,0.4,0,0.4,0.3c0,0.1,0,0.1-0.1,0.1c-0.6,0-1.2,0-1.9,0c-0.6,0-1.2,0-1.9,0c-0.1,0-0.1,0-0.1-0.1c0-0.3,0-0.3,0.4-0.3     c0.8,0,0.8-0.1,0.8-1.7v-1.5H60z"/>
			<path class="st0" d="M80.4,48c0,1.4-0.8,4-4.5,4c-2.4,0-4.1-1.5-4.1-4c0-2.4,2-4,4.5-4C78.7,44,80.4,45.6,80.4,48z M73.8,48     c0,1.3,0.5,3.6,2.4,3.6c2,0,2.4-1.9,2.4-3.6c0-1.5-0.5-3.6-2.4-3.6C74.2,44.5,73.8,46.4,73.8,48z"/>
			<path class="st0" d="M93.3,44.2c0.2,0,0.4-0.3,0.5-0.3c0.1,0,0.2,0.1,0.2,0.2c0,0.2,0.5,1.8,0.5,1.9c0,0.1-0.1,0.1-0.2,0.1     c-0.1,0-0.2,0-0.2-0.1c-0.6-1-1-1.3-2.5-1.3c-0.7,0-0.7,0-0.7,0.7v4.3c0,1.6,0,1.7,0.8,1.7c0.3,0,0.4,0,0.4,0.3     c0,0.1,0,0.1-0.1,0.1c-0.6,0-1.2,0-1.9,0c-0.6,0-1.2,0-1.9,0c-0.1,0-0.1,0-0.1-0.1c0-0.3,0-0.3,0.4-0.3c0.8,0,0.8-0.1,0.8-1.7     v-4.3c0-0.7,0-0.7-0.8-0.7c-1.3,0-1.8,0.4-2.4,1.3c-0.1,0.1-0.1,0.2-0.2,0.2c-0.1,0-0.2,0-0.2-0.1c0-0.2,0.5-1.6,0.5-1.8     c0-0.1,0.1-0.2,0.2-0.2c0.1,0,0.2,0.3,0.8,0.3H93.3z"/>
			<path class="st0" d="M100.7,46c0-1.3-0.1-1.4-0.9-1.4c-0.1,0-0.3-0.1-0.3-0.1c0-0.3,0-0.3,0.2-0.3c0.3,0,1,0,1.7,0     c3.5,0,4,0,4.3,0c0,0,0.1,0,0.1,0.1c0,0.2,0.5,1.4,0.5,1.6c0,0.1-0.1,0.1-0.2,0.1c-0.2,0-0.2,0-0.4-0.3c-0.2-0.2-0.5-0.6-0.9-0.8     c-0.3-0.2-0.4-0.2-1.3-0.2c-1,0-1.1,0-1.1,0.7v2.5h0.7c0.8,0,1-0.2,1.1-1c0-0.2,0.1-0.3,0.2-0.3c0.2,0,0.2,0,0.2,0.1     c0,0.1,0,0.4,0,1.4c0,0.5,0,1,0,1.4c0,0.1-0.1,0.1-0.3,0.1c-0.1,0-0.1,0-0.1-0.2c-0.2-0.9-0.2-1.1-1.5-1.1h-0.4V51     c0,0.4,0,0.4,2.6,0.4c0.2,0,0.5-0.2,0.7-0.4c0.6-0.9,0.7-0.9,0.9-0.9c0.2,0,0.2,0,0.2,0.1c0,0.1-0.4,1-0.6,1.5     c-0.1,0.2-0.1,0.2-0.4,0.2c-0.2,0-0.4,0-4.6,0c-1.4,0-1.5,0-1.6,0c-0.1,0-0.1,0-0.1-0.1c0-0.3,0-0.3,0.4-0.3     c0.8,0,0.8-0.1,0.8-1.7V46z"/>
			<path class="st0" d="M113.1,46c0-1.3-0.1-1.4-0.9-1.4c-0.1,0-0.3-0.1-0.3-0.1c0-0.3,0-0.3,0.2-0.3c0.6,0,1.2,0,1.9,0     c0.6,0,1.2,0,1.9,0c0.2,0,0.2,0,0.2,0.3c0,0.1-0.1,0.1-0.3,0.1c-0.9,0-0.9,0.1-0.9,1.4v4.6c0,0.6,0.1,0.7,1,0.7     c1.5,0,2.2,0,2.8-1.6c0-0.1,0.1-0.1,0.2-0.1c0.1,0,0.2,0,0.2,0.1c0,0.2-0.4,2-0.5,2.1c0,0.1-0.1,0.1-0.2,0.1c-0.5,0-2.3,0-3.5,0     c-1.7,0-2.3,0-2.8,0c-0.1,0-0.1,0-0.1-0.1c0-0.3,0-0.3,0.4-0.3c0.8,0,0.8-0.1,0.8-1.7V46z"/>
			<path class="st0" d="M138.5,49.5c0-0.1,0-0.5-0.7-0.5h-0.6c-0.1,0-0.1-0.1-0.1-0.2c0-0.2,0-0.2,0.2-0.2c0.6,0,1.3,0,1.9,0     c0.6,0,1.2,0,1.8,0c0.1,0,0.1,0.1,0.1,0.2c0,0.2,0,0.2-0.6,0.2c-0.2,0-0.4,0.2-0.4,0.8v0.9c0,0.5,0.3,0.5,0.3,0.7     c0,0.2-0.6,0.2-0.8,0.3c-0.8,0.2-1.7,0.3-2.6,0.3c-3.4,0-4.7-1.7-4.7-3.9c0-2.5,2.1-4.1,4.6-4.1c1.7,0,2.6,0.7,2.8,0.7     c0.2,0,0.3-0.2,0.4-0.2c0.1,0,0.1,0,0.1,0.1c0,0.6,0.1,1.3,0.1,1.9c0,0.1-0.1,0.1-0.2,0.1c-0.3,0-0.2-0.6-0.5-1     c-0.6-0.9-1.2-1.2-2.4-1.2c-1.9,0-2.7,1.9-2.7,3.6c0,2,1,3.4,2.9,3.4c0.4,0,1.3,0,1.3-0.9V49.5z"/>
			<path class="st0" d="M149,49.7c0,1.6,0,1.7,0.8,1.7c0.3,0,0.4,0,0.4,0.3c0,0.1,0,0.1-0.1,0.1c-0.6,0-1.2,0-1.9,0     c-0.6,0-1.2,0-1.9,0c-0.1,0-0.1,0-0.1-0.1c0-0.3,0-0.3,0.4-0.3c0.8,0,0.8-0.1,0.8-1.7V46c0-1.3-0.1-1.4-0.9-1.4     c-0.1,0-0.3-0.1-0.3-0.1c0-0.3,0-0.3,0.2-0.3c0.6,0,1.2,0,1.9,0c0.3,0,0.9,0,1.8,0c2.7,0,3,1.4,3,2.1c0,1-0.7,1.5-1.6,1.8     c0,0-0.1,0.1-0.1,0.1c0,0,0.1,0.1,0.2,0.3l1.8,2.5c0.2,0.3,0.5,0.4,0.9,0.4c0.1,0,0.1,0,0.1,0.1c0,0.3,0,0.3-0.1,0.3     c-0.2,0-0.8,0-1.2,0c-0.3,0-0.7,0-1.1,0c-0.1,0-0.3-0.3-0.5-0.7l-1.3-2c-0.5-0.7-0.6-0.7-1-0.7V49.7z M149,48h0.4     c1.3,0,1.7-0.7,1.7-1.6c0-1-0.4-1.8-1.5-1.8c-0.3,0-0.6,0.1-0.6,0.5V48z"/>
			<path class="st0" d="M167.8,48c0,1.4-0.8,4-4.5,4c-2.4,0-4.1-1.5-4.1-4c0-2.4,2-4,4.5-4C166.1,44,167.8,45.6,167.8,48z M161.2,48     c0,1.3,0.5,3.6,2.4,3.6c2,0,2.4-1.9,2.4-3.6c0-1.5-0.5-3.6-2.4-3.6C161.6,44.5,161.2,46.4,161.2,48z"/>
			<path class="st0" d="M174.3,46c0-1.3-0.1-1.4-0.9-1.4c-0.1,0-0.3-0.1-0.3-0.1c0-0.3,0-0.3,0.2-0.3c0.6,0,1.2,0,1.9,0     c0.6,0,1.2,0,1.9,0c0.2,0,0.2,0,0.2,0.3c0,0.1-0.1,0.1-0.3,0.1c-0.9,0-0.9,0.1-0.9,1.4v2.7c0,2.5,1.7,2.5,2.3,2.5     c1.4,0,2.2-1,2.2-3v-1.9c0-1.8-0.4-1.8-1.1-1.8c-0.1,0-0.3,0-0.3-0.2c0-0.2,0-0.2,0.2-0.2c0.3,0,0.9,0,1.4,0c0.4,0,0.9,0,1.4,0     c0.1,0,0.1,0.1,0.1,0.3c0,0.1-0.1,0.1-0.4,0.2c-0.3,0-0.8,0.1-0.8,0.9c-0.1,2.8-0.1,3.7-0.2,4.2c-0.4,1.7-1.8,2.3-3.3,2.3     c-2.2,0-3.2-1.2-3.2-2.6V46z"/>
			<path class="st0" d="M188.3,46c0-1.3-0.1-1.4-0.9-1.4c-0.1,0-0.3-0.1-0.3-0.1c0-0.3,0-0.3,0.2-0.3c0.6,0,1.2,0,1.9,0     c0.3,0,1.1,0,1.8,0c2.5,0,2.9,1.5,2.9,2.2c0,1.2-0.8,2.4-2.8,2.4c-0.4,0-0.8-0.1-1.1-0.1v1.6c0,1.1,0,1.2,1,1.2     c0.4,0,0.4,0,0.4,0.3c0,0.1,0,0.1-0.2,0.1c-0.8,0-1.4,0-2,0c-0.6,0-1.2,0-1.9,0c-0.1,0-0.1,0-0.1-0.1c0-0.3,0-0.3,0.4-0.3     c0.8,0,0.8-0.1,0.8-1.7V46z M190,48c0,0.2,0.3,0.2,0.4,0.2c1.1,0,1.7-0.8,1.7-1.9c0-1-0.6-1.8-1.7-1.8c-0.5,0-0.5,0.2-0.5,0.7V48     z"/>
		</g>
	</g>
</g>
</svg>