<svg xmlns="http://www.w3.org/2000/svg"  xmlns:xlink="http://www.w3.org/1999/xlink"  width="367" height="70" fill="none" id="svg-1274291338_5734"><g clip-path="url(#svg-1274291338_5734_a)" fill="#1a1a1a"><path d="M47.98 68c-2.36-.073-4.726-.05-7.077-.236-9.306-.74-18.287-2.752-26.643-7.08-3.51-1.818-6.732-4.045-9.426-6.973-2.107-2.291-3.73-4.867-4.447-7.931-.857-3.67-.266-7.142 1.551-10.42 1.66-2.995 4.012-5.37 6.715-7.415 4.006-3.033 8.479-5.18 13.217-6.771 2.258-.758 4.577-1.334 6.868-1.991.089-.026.183-.058.272-.051.078.006.153.062.23.095-.03.067-.043.158-.096.197-.18.135-.374.25-.563.375-1.984 1.322-3.743 2.88-5.049 4.9-2.499 3.87-2.336 8.321.42 12.018 1.952 2.618 4.527 4.448 7.415 5.878 3.248 1.608 6.696 2.572 10.27 3.11 3.362.504 6.738.61 10.123.308 5.181-.466 10.135-1.725 14.66-4.382 2.393-1.405 4.495-3.15 6.037-5.504 2.478-3.788 2.365-8.227-.287-11.89-1.278-1.766-2.874-3.188-4.676-4.392-.166-.11-.343-.206-.498-.33-.092-.076-.153-.19-.23-.286.128-.024.269-.096.382-.066 2.006.548 4.029 1.042 6.008 1.676 4.643 1.487 9.053 3.484 13.07 6.284 2.867 1.998 5.404 4.332 7.294 7.308 1.828 2.877 2.73 5.999 2.42 9.423-.233 2.565-1.16 4.892-2.563 7.033-2.023 3.085-4.723 5.475-7.764 7.505-4.464 2.98-9.362 5.007-14.487 6.511-4.464 1.312-9.021 2.143-13.643 2.657-3.16.352-6.327.413-9.502.435V68Z"></path><path d="M65.415 17.42c-.001 9.617-7.841 17.456-17.433 17.43-9.607-.025-17.39-7.822-17.396-17.429C30.58 7.807 38.428-.034 48.021 0c9.628.034 17.396 7.813 17.394 17.42Z"></path></g><path d="M143.5 21.898c-.242-2.152-1.242-3.818-3-5-1.758-1.197-3.97-1.796-6.636-1.796-1.909 0-3.561.303-4.955.91-1.394.59-2.477 1.409-3.25 2.454-.757 1.03-1.136 2.204-1.136 3.523 0 1.106.257 2.06.772 2.863a6.942 6.942 0 0 0 2.069 2.023c.863.53 1.788.977 2.772 1.341.985.348 1.932.636 2.841.864l4.546 1.182c1.485.363 3.007.855 4.568 1.477a18.317 18.317 0 0 1 4.341 2.454 11.76 11.76 0 0 1 3.227 3.773c.833 1.5 1.25 3.295 1.25 5.386 0 2.637-.682 4.978-2.045 7.023-1.349 2.045-3.311 3.66-5.887 4.841-2.56 1.182-5.659 1.773-9.295 1.773-3.485 0-6.5-.553-9.046-1.66-2.545-1.105-4.538-2.674-5.977-4.704-1.439-2.045-2.235-4.47-2.386-7.273h7.045c.137 1.682.682 3.084 1.637 4.205.969 1.106 2.204 1.932 3.704 2.477 1.515.53 3.174.796 4.977.796 1.985 0 3.75-.311 5.296-.932 1.56-.637 2.788-1.515 3.682-2.637.894-1.136 1.341-2.462 1.341-3.977 0-1.379-.394-2.507-1.182-3.386-.773-.879-1.826-1.606-3.159-2.182-1.319-.576-2.811-1.083-4.478-1.523l-5.5-1.5c-3.727-1.015-6.681-2.507-8.863-4.477-2.167-1.97-3.25-4.576-3.25-7.818 0-2.682.727-5.023 2.182-7.023 1.454-2 3.424-3.553 5.909-4.659 2.484-1.121 5.288-1.682 8.409-1.682 3.151 0 5.932.553 8.341 1.66 2.424 1.105 4.333 2.628 5.727 4.567 1.394 1.925 2.121 4.137 2.182 6.637H143.5Zm20.226 22.477-.046-8.295h1.182l13.909-14.773h8.137l-15.864 16.818h-1.068l-6.25 6.25Zm-6.25 11.841V9.671h6.795v46.545h-6.795Zm22.045 0-12.5-16.59 4.682-4.75 16.159 21.34h-8.341Zm16.783 13.09c-1.016 0-1.94-.082-2.773-.25-.833-.15-1.455-.317-1.864-.5l1.637-5.567c1.242.333 2.348.477 3.318.431.97-.045 1.826-.409 2.568-1.09.758-.682 1.424-1.796 2-3.341l.841-2.319-12.773-35.363h7.273l8.841 27.09h.363l8.841-27.09h7.296l-14.387 39.568c-.666 1.818-1.515 3.356-2.545 4.614-1.03 1.272-2.258 2.227-3.682 2.863-1.424.637-3.076.955-4.954.955Zm60.538-48-12.659 34.91h-7.273l-12.682-34.91h7.296l8.841 26.864h.363l8.818-26.863h7.296Zm14.265 35.683c-2.212 0-4.212-.41-6-1.227-1.788-.834-3.204-2.038-4.25-3.614-1.03-1.576-1.545-3.508-1.545-5.796 0-1.97.379-3.59 1.136-4.863a8.388 8.388 0 0 1 3.068-3.023c1.288-.742 2.728-1.303 4.319-1.682a42.908 42.908 0 0 1 4.863-.864l5.091-.59c1.303-.167 2.25-.432 2.841-.796.591-.364.886-.954.886-1.773v-.159c0-1.984-.56-3.522-1.681-4.613-1.107-1.091-2.758-1.637-4.955-1.637-2.288 0-4.091.508-5.409 1.523-1.303 1-2.205 2.114-2.705 3.341l-6.386-1.454c.758-2.122 1.864-3.834 3.318-5.137a13.46 13.46 0 0 1 5.068-2.863c1.909-.607 3.917-.91 6.023-.91 1.394 0 2.871.167 4.432.5 1.576.319 3.045.91 4.409 1.773 1.379.864 2.508 2.099 3.386 3.705.879 1.59 1.319 3.659 1.319 6.204v23.182h-6.637v-4.773h-.273c-.439.88-1.098 1.743-1.977 2.591-.879.849-2.007 1.553-3.386 2.114-1.379.56-3.03.84-4.955.84Zm1.478-5.455c1.878 0 3.484-.371 4.818-1.114 1.348-.742 2.371-1.712 3.068-2.909a7.547 7.547 0 0 0 1.068-3.886v-4.5c-.242.242-.712.47-1.409.682-.682.197-1.462.371-2.341.523-.879.136-1.735.265-2.568.386-.833.106-1.53.197-2.091.273-1.318.166-2.523.447-3.614.84-1.075.395-1.939.963-2.591 1.705-.636.727-.954 1.697-.954 2.91 0 1.681.621 2.954 1.864 3.817 1.242.849 2.825 1.273 4.75 1.273Zm30.316-16.045v20.727h-6.795v-34.91h6.522v5.683h.432c.803-1.849 2.061-3.334 3.773-4.455 1.727-1.121 3.901-1.682 6.523-1.682 2.378 0 4.462.5 6.25 1.5 1.788.985 3.174 2.455 4.159 4.41.985 1.954 1.477 4.37 1.477 7.25v22.204h-6.795V34.83c0-2.53-.659-4.508-1.978-5.932-1.318-1.44-3.128-2.16-5.431-2.16-1.576 0-2.978.342-4.205 1.024-1.212.681-2.174 1.681-2.886 3-.697 1.303-1.046 2.878-1.046 4.727Zm45.22 21.431c-3.439 0-6.401-.734-8.886-2.204-2.47-1.485-4.379-3.568-5.727-6.25-1.334-2.697-2-5.856-2-9.477 0-3.576.666-6.727 2-9.455 1.348-2.727 3.227-4.856 5.636-6.386 2.424-1.53 5.257-2.296 8.5-2.296 1.97 0 3.879.326 5.727.978 1.849.651 3.508 1.674 4.977 3.068 1.47 1.394 2.629 3.204 3.478 5.432.848 2.212 1.272 4.901 1.272 8.068v2.409h-27.75v-5.091h21.091c0-1.788-.363-3.371-1.091-4.75a8.248 8.248 0 0 0-3.068-3.296c-1.303-.803-2.833-1.204-4.591-1.204-1.909 0-3.575.47-5 1.41a9.45 9.45 0 0 0-3.272 3.636c-.758 1.484-1.137 3.098-1.137 4.84v3.978c0 2.333.409 4.318 1.228 5.954.833 1.636 1.992 2.886 3.477 3.75 1.485.849 3.219 1.273 5.204 1.273 1.288 0 2.462-.182 3.523-.546a7.606 7.606 0 0 0 2.75-1.681c.773-.743 1.364-1.66 1.773-2.75l6.432 1.159a11.66 11.66 0 0 1-2.773 4.977c-1.318 1.41-2.977 2.508-4.977 3.295-1.985.773-4.25 1.16-6.796 1.16Z" fill="#1a1a1a"></path><defs><clipPath id="svg-1274291338_5734_a"><path fill="#1a1a1a" d="M0 0h96v68H0z"></path></clipPath></defs></svg>
